# xmcd
#
# Track frame offsets:
#  150
#  17234
#  32121
#  47226
#  66332
#  84673
#  100471
#  114939
#  134957
#  148853
#  165641
#  187393
#  203405
#  223363
#  237434
#  252982
#  269364
#  284923
#  300808
#  315915
#  332832
#
# Disc length: 4657 seconds
#
# Revision: 0
# Processed by: cddbd v1.4PL0 Copyright (c) Steve Scherf et al.
# Submitted via: AltoMP3_Maker 3.0
#
DISCID=4f122f15
DTITLE=Сборник - Звезды дискотек 8
DYEAR=1900
DGENRE=
TTITLE0=Безнадега.ru
TTITLE1=Всего и делов
TTITLE2=Территория
TTITLE3=Долгими ночами
TTITLE4=Не ругай меня
TTITLE5=Вчера
TTITLE6=Love
TTITLE7=Потому что не было тебя
TTITLE8=Пожарные
TTITLE9=Жестокая любовь
TTITLE10=Осенний дождь
TTITLE11=Падают листья
TTITLE12=Я и ты
TTITLE13=Холодно
TTITLE14=Одна
TTITLE15=Без него
TTITLE16=Запутала
TTITLE17=Х.Х.Х и Д.П.
TTITLE18=Виноват не я
TTITLE19=Осенняя
TTITLE20=Пьяная
EXTD=
EXTT0=
EXTT1=
EXTT2=
EXTT3=
EXTT4=
EXTT5=
EXTT6=
EXTT7=
EXTT8=
EXTT9=
EXTT10=
EXTT11=
EXTT12=
EXTT13=
EXTT14=
EXTT15=
EXTT16=
EXTT17=
EXTT18=
EXTT19=
EXTT20=
PLAYORDER=
